REM MD5 14dc498237addad3c92050abb91ba1ff
FILE "Aquarian Age - Tokyo Wars (Japan).bin" BINARY
  TRACK 01 MODE2/2352
    INDEX 01 00:00:00
  TRACK 02 AUDIO
    INDEX 00 26:40:69
    INDEX 01 26:42:69
  TRACK 03 AUDIO
    INDEX 00 28:26:71
    INDEX 01 28:29:71
REM LEADOUT 31:59:71
